PathFileType	4	(X/Y/Z)	D:\TRACE\spotREDO_2-26-24\spot_justBody_Motion_2_8-platform.trc
DataRate	CameraRate	NumFrames	NumMarkers	Units	OrigDataRate	OrigDataStartFrame	OrigNumFrames
100.00	100.00	      36	5	mm	100.00	876	      7000
Frame#	Time	Left_Front			Right_Front			Left_Aft			Right_Aft			Post			
		X1	Y1	Z1	X2	Y2	Z2	X3	Y3	Z3	X4	Y4	Z4	X5	Y5	Z5	

876	8.750	-733.04968	-58.82647	-587.06927	681.80975	-43.06807	-503.01691	-805.15326	60.14920	625.68695	765.44147	67.22625	629.51788	-22.62463	528.26141	-1049.45947	
877	8.760	-732.50977	-58.93222	-587.15204	682.69989	-42.97603	-503.06464	-804.35553	59.96041	625.81384	766.14301	67.24217	629.69830	-22.07726	528.27338	-1049.35205	
878	8.770	-731.50415	-58.83981	-587.17480	683.39502	-42.87218	-503.01886	-803.42572	59.72644	625.73407	767.04303	67.09697	629.47119	-21.64218	528.33026	-1049.50891	
879	8.780	-730.67419	-58.82451	-587.28674	684.25317	-42.63069	-503.14542	-802.59131	59.81695	625.67767	767.77692	67.10062	629.56854	-20.57033	528.63995	-1049.12378	
880	8.790	-729.96655	-58.65547	-587.34283	685.01416	-42.58833	-503.24182	-801.82391	59.68697	625.82513	768.72955	67.12679	629.69720	-19.74108	528.84058	-1048.81091	
881	8.800	-729.05591	-58.53489	-587.13654	685.93396	-42.66755	-502.84976	-800.99402	59.33820	625.81610	769.32513	66.86043	629.85211	-18.77408	528.91833	-1048.50818	
882	8.810	-728.37537	-58.42524	-587.04846	686.80835	-42.73485	-502.91519	-800.16797	59.11750	625.97333	770.10376	66.39892	629.73309	-17.94765	529.29688	-1048.24219	
883	8.820	-727.32831	-58.07618	-587.01855	687.48669	-42.45270	-503.00922	-799.37177	59.03919	626.00848	770.95093	66.36876	629.69623	-17.27421	529.75879	-1048.41858	
884	8.830	-726.73071	-57.89027	-587.01575	688.29749	-41.94234	-502.78552	-798.56586	58.71762	625.94934	771.76343	66.02554	629.74310	-16.57876	530.16986	-1048.38562	
885	8.840	-725.75372	-57.64270	-586.88403	689.43945	-41.75841	-502.75476	-797.64081	58.47951	626.13379	773.07568	66.13656	630.24640	-15.56504	530.74469	-1048.07251	
886	8.850	-724.74817	-57.14148	-586.92468	690.08350	-41.36266	-502.72546	-796.79462	58.16362	626.15942	773.83368	65.96109	630.35187	-14.40205	531.30042	-1047.46887	
887	8.860	-724.06287	-56.75254	-586.81482	690.85791	-41.26101	-502.59360	-795.51398	57.93039	626.36304	775.03406	65.74003	630.76758	-13.98374	531.85907	-1047.46851	
888	8.870	-723.18970	-56.23297	-586.74200	692.17224	-40.80222	-502.43341	-794.81580	57.74334	626.46802	775.74457	65.22945	630.69977	-12.91549	532.68481	-1046.90955	
889	8.880	-722.37158	-55.78047	-586.69647	692.89221	-40.39010	-502.32120	-793.99603	56.94065	626.72736	776.93329	64.52406	631.05023	-11.98159	533.41455	-1046.28833	
890	8.890	-721.23242	-55.45018	-586.64044	693.68286	-40.03852	-502.39047	-793.13818	56.41388	626.91333	777.59644	64.00257	630.75854	-11.20212	534.33722	-1045.93896	
891	8.900	-720.32947	-54.97001	-586.58264	694.86884	-39.49871	-502.13513	-792.04333	55.80032	627.09558	778.68396	63.65409	631.25250	-10.30213	535.42419	-1045.06714	
892	8.910	-719.40723	-54.44730	-586.49219	695.71497	-39.00237	-502.24023	-791.25110	55.71571	627.30536	779.48895	63.00721	631.44659	-8.94460	536.21332	-1044.17834	
893	8.920	-718.25427	-53.74082	-586.27887	696.60974	-38.34179	-502.15128	-790.17517	55.12663	627.53638	780.56238	62.58357	631.59375	-8.28223	537.37415	-1043.82263	
894	8.930	-717.67761	-53.14870	-586.18463	697.52545	-37.79821	-501.99460	-789.26312	54.33592	627.66211	781.44934	61.88387	631.81274	-7.11663	538.39771	-1042.84302	
895	8.940	-716.66638	-52.27345	-585.99182	698.76099	-37.27287	-501.94977	-788.30011	53.55209	627.92908	782.15582	61.02830	631.94940	-6.54231	539.55444	-1042.08972	
896	8.950	-715.35413	-52.00674	-585.89063	699.40326	-36.85764	-501.80112	-787.22345	53.03277	628.15601	783.43140	60.21275	631.88367	-5.34150	540.66589	-1041.23474	
897	8.960	-714.28412	-51.10925	-586.02185	700.59418	-36.18288	-501.79105	-786.19525	52.33740	628.33167	784.31604	59.88261	632.29211	-4.26010	541.84198	-1040.39893	
898	8.970	-713.25604	-50.63560	-585.82489	701.68103	-35.80160	-501.47336	-784.97314	51.77647	628.61090	785.37842	59.18517	632.62970	-3.58374	542.94238	-1039.84937	
899	8.980	-712.21979	-49.96520	-585.57916	702.84460	-34.90177	-501.30582	-783.96631	51.36924	628.91046	786.43286	58.59448	632.79834	-2.35644	544.27484	-1038.87378	
900	8.990	-711.28540	-49.22498	-585.44250	703.64423	-34.39384	-501.29117	-782.97833	50.30352	628.99664	787.55212	57.80882	633.14630	-0.93937	545.44379	-1037.97668	
901	9.000	-710.37457	-48.20222	-585.44269	704.80054	-33.89632	-501.06805	-782.08966	49.56123	629.29028	788.68817	57.10551	633.45270	-0.44934	546.95404	-1037.61853	
902	9.010	-709.27197	-47.47891	-585.26068	705.93127	-32.95998	-501.06042	-780.92157	48.71143	629.65649	789.40283	56.14766	633.53076	0.58554	548.20490	-1036.64648	
903	9.020	-708.08270	-46.81146	-585.11987	706.62061	-32.37941	-500.81848	-780.05701	47.96134	629.77881	790.57526	55.42698	633.84686	1.84301	549.44537	-1035.83923	
904	9.030	-706.84369	-45.86587	-584.81378	708.15253	-31.26161	-500.67065	-778.72223	47.06846	630.22217	791.60449	54.40882	634.16150	2.98710	551.08411	-1034.96667	
905	9.040	-705.86639	-44.93500	-584.87921	708.94550	-30.76154	-500.50552	-777.92017	46.38924	630.46692	792.66840	53.41051	634.41083	4.23745	552.57343	-1033.87488	
906	9.050	-704.78943	-43.99804	-584.53796	710.33197	-29.83687	-500.20596	-776.72528	45.36408	630.66718	793.77454	52.76359	634.51392	5.09386	554.23004	-1032.96606	
907	9.060	-703.74408	-43.11895	-584.52454	711.20740	-29.04147	-500.07758	-775.54688	44.23635	631.19525	795.16638	51.75119	634.97687	6.32633	555.97272	-1031.50623	
908	9.070	-702.53577	-42.22987	-584.30249	712.17621	-28.18675	-500.10989	-774.65356	43.40534	631.32245	796.11932	50.66570	635.26807	7.11814	557.72217	-1030.17773	
909	9.080	-701.42407	-41.14974	-584.10876	713.30298	-27.34605	-499.73196	-773.36090	42.27820	631.82355	796.89252	49.58358	635.55304	8.37404	559.53674	-1028.92688	
910	9.090	-700.30573	-40.02459	-583.77588	714.42035	-26.08518	-499.42349	-772.31421	41.57121	632.22913	798.07324	48.63414	636.10034	9.35242	561.42877	-1027.45740	
911	9.100	-699.28735	-39.08698	-583.49469	715.55121	-25.43148	-499.15887	-770.98157	39.68438	632.72668	799.20801	47.96570	636.29639	10.65097	563.22003	-1026.01709	
